<svg width="26" height="10" viewBox="0 0 26 10" fill="none" xmlns="http://www.w3.org/2000/svg">
<path d="M5.424 9H0.48V7.86C0.48 7.284 0.556 6.804 0.708 6.42C0.86 6.028 1.064 5.708 1.32 5.46C1.576 5.204 1.856 5 2.16 4.848L2.976 4.44C3.288 4.28 3.54 4.112 3.732 3.936C3.932 3.752 4.032 3.516 4.032 3.228V3.012C4.032 2.716 3.928 2.484 3.72 2.316C3.52 2.14 3.196 2.052 2.748 2.052C2.476 2.052 2.2 2.092 1.92 2.172C1.648 2.252 1.316 2.364 0.924 2.508L0.48 1.272C0.928 1.072 1.336 0.932 1.704 0.852C2.08 0.763999 2.444 0.719999 2.796 0.719999C3.444 0.719999 3.96 0.823999 4.344 1.032C4.736 1.24 5.016 1.52 5.184 1.872C5.36 2.216 5.448 2.596 5.448 3.012V3.228C5.448 3.66 5.36 4.028 5.184 4.332C5.016 4.636 4.792 4.892 4.512 5.1C4.232 5.308 3.928 5.492 3.6 5.652L2.784 6.06C2.488 6.204 2.268 6.404 2.124 6.66C1.988 6.916 1.912 7.244 1.896 7.644H5.424V9ZM12.5986 4.056V5.772C12.5986 6.812 12.3546 7.632 11.8666 8.232C11.3786 8.824 10.6626 9.12 9.71859 9.12C8.77459 9.12 8.05859 8.824 7.57059 8.232C7.08259 7.632 6.83859 6.812 6.83859 5.772V4.056C6.83859 3.016 7.08259 2.2 7.57059 1.608C8.05859 1.016 8.77459 0.719999 9.71859 0.719999C10.6626 0.719999 11.3786 1.016 11.8666 1.608C12.3546 2.2 12.5986 3.016 12.5986 4.056ZM11.1466 4.056C11.1466 2.72 10.6706 2.052 9.71859 2.052C9.23059 2.052 8.87059 2.22 8.63859 2.556C8.40659 2.892 8.29059 3.392 8.29059 4.056V5.772C8.29059 6.436 8.40659 6.94 8.63859 7.284C8.87059 7.62 9.23059 7.788 9.71859 7.788C10.6706 7.788 11.1466 7.116 11.1466 5.772V4.056ZM18.8068 9H13.8628V7.86C13.8628 7.284 13.9388 6.804 14.0908 6.42C14.2428 6.028 14.4468 5.708 14.7028 5.46C14.9588 5.204 15.2388 5 15.5428 4.848L16.3588 4.44C16.6708 4.28 16.9228 4.112 17.1148 3.936C17.3148 3.752 17.4148 3.516 17.4148 3.228V3.012C17.4148 2.716 17.3108 2.484 17.1028 2.316C16.9028 2.14 16.5788 2.052 16.1308 2.052C15.8588 2.052 15.5828 2.092 15.3028 2.172C15.0308 2.252 14.6988 2.364 14.3068 2.508L13.8628 1.272C14.3108 1.072 14.7188 0.932 15.0868 0.852C15.4628 0.763999 15.8268 0.719999 16.1788 0.719999C16.8268 0.719999 17.3428 0.823999 17.7268 1.032C18.1188 1.24 18.3988 1.52 18.5668 1.872C18.7428 2.216 18.8308 2.596 18.8308 3.012V3.228C18.8308 3.66 18.7428 4.028 18.5668 4.332C18.3988 4.636 18.1748 4.892 17.8948 5.1C17.6148 5.308 17.3108 5.492 16.9828 5.652L16.1668 6.06C15.8708 6.204 15.6508 6.404 15.5068 6.66C15.3708 6.916 15.2948 7.244 15.2788 7.644H18.8068V9ZM20.2454 4.788L20.4854 0.84H24.6614V2.196H21.7574L21.6494 3.996C21.9294 3.924 22.2294 3.888 22.5494 3.888C23.3414 3.888 23.9614 4.096 24.4094 4.512C24.8574 4.92 25.0814 5.524 25.0814 6.324V6.648C25.0814 7.096 24.9894 7.508 24.8054 7.884C24.6214 8.26 24.3254 8.56 23.9174 8.784C23.5174 9.008 22.9854 9.12 22.3214 9.12C21.9534 9.12 21.5694 9.076 21.1694 8.988C20.7774 8.9 20.3454 8.752 19.8734 8.544L20.3174 7.308C20.7414 7.476 21.0974 7.6 21.3854 7.68C21.6814 7.752 21.9774 7.788 22.2734 7.788C22.7214 7.788 23.0574 7.696 23.2814 7.512C23.5134 7.328 23.6294 7.04 23.6294 6.648V6.324C23.6294 5.972 23.5254 5.692 23.3174 5.484C23.1174 5.276 22.7934 5.172 22.3454 5.172C22.1454 5.172 21.9374 5.2 21.7214 5.256C21.5054 5.304 21.2734 5.376 21.0254 5.472L20.2454 4.788Z" fill="white"/>
</svg>
