<svg width="126" height="9" viewBox="0 0 126 9" fill="none" xmlns="http://www.w3.org/2000/svg">
<path d="M4.392 8.144C3.648 8.144 2.984 7.972 2.4 7.628C1.824 7.276 1.376 6.804 1.056 6.212C0.744 5.612 0.588 4.96 0.588 4.256C0.588 3.432 0.796 2.728 1.212 2.144C1.628 1.552 2.16 1.108 2.808 0.812C3.464 0.516 4.132 0.368 4.812 0.368C5.572 0.368 6.24 0.548 6.816 0.908C7.392 1.26 7.832 1.728 8.136 2.312C8.448 2.896 8.604 3.516 8.604 4.172C8.604 4.9 8.412 5.568 8.028 6.176C7.644 6.784 7.128 7.264 6.48 7.616C5.84 7.968 5.144 8.144 4.392 8.144ZM4.788 7.844C5.236 7.844 5.636 7.716 5.988 7.46C6.348 7.196 6.628 6.816 6.828 6.32C7.028 5.816 7.128 5.216 7.128 4.52C7.128 3.784 7.016 3.128 6.792 2.552C6.568 1.968 6.244 1.512 5.82 1.184C5.396 0.856 4.9 0.692 4.332 0.692C3.604 0.692 3.044 0.968 2.652 1.52C2.26 2.064 2.064 2.828 2.064 3.812C2.064 4.588 2.18 5.284 2.412 5.9C2.652 6.508 2.976 6.984 3.384 7.328C3.8 7.672 4.268 7.844 4.788 7.844ZM11.2755 1.712C11.2755 2 11.3475 2.256 11.4915 2.48C11.6435 2.704 11.8275 2.9 12.0435 3.068C12.2595 3.236 12.5515 3.44 12.9195 3.68C13.3195 3.936 13.6395 4.16 13.8795 4.352C14.1195 4.544 14.3235 4.78 14.4915 5.06C14.6595 5.332 14.7435 5.648 14.7435 6.008C14.7435 6.424 14.6315 6.796 14.4075 7.124C14.1835 7.444 13.8715 7.696 13.4715 7.88C13.0795 8.056 12.6395 8.144 12.1515 8.144C11.7995 8.144 11.4235 8.096 11.0235 8C10.6315 7.896 10.3675 7.784 10.2315 7.664C10.1915 7.632 10.1595 7.604 10.1355 7.58C10.1195 7.548 10.1115 7.5 10.1115 7.436L10.0755 5.528V5.516C10.0755 5.484 10.0955 5.468 10.1355 5.468C10.1755 5.46 10.1995 5.472 10.2075 5.504C10.4475 5.992 10.6555 6.388 10.8315 6.692C11.0155 6.996 11.2435 7.264 11.5155 7.496C11.7955 7.728 12.1115 7.844 12.4635 7.844C12.7835 7.844 13.0475 7.76 13.2555 7.592C13.4635 7.416 13.5675 7.12 13.5675 6.704C13.5675 6.352 13.4875 6.044 13.3275 5.78C13.1755 5.516 12.9875 5.292 12.7635 5.108C12.5395 4.924 12.2315 4.704 11.8395 4.448C11.4555 4.2 11.1555 3.988 10.9395 3.812C10.7315 3.636 10.5515 3.424 10.3995 3.176C10.2475 2.928 10.1715 2.636 10.1715 2.3C10.1715 1.876 10.2915 1.52 10.5315 1.232C10.7795 0.936 11.0955 0.72 11.4795 0.584C11.8635 0.44 12.2675 0.368 12.6915 0.368C12.9715 0.368 13.2555 0.396 13.5435 0.452C13.8315 0.5 14.0635 0.56 14.2395 0.632C14.3115 0.664 14.3595 0.7 14.3835 0.74C14.4075 0.772 14.4195 0.816 14.4195 0.872V2.636C14.4195 2.66 14.3995 2.68 14.3595 2.696C14.3195 2.704 14.2955 2.696 14.2875 2.672L14.1915 2.444C13.9915 1.94 13.7555 1.512 13.4835 1.16C13.2195 0.808 12.8475 0.632 12.3675 0.632C12.0475 0.632 11.7835 0.724 11.5755 0.908C11.3755 1.092 11.2755 1.36 11.2755 1.712ZM17.9553 6.98C17.9553 7.236 17.9833 7.424 18.0393 7.544C18.0953 7.656 18.1993 7.736 18.3513 7.784C18.5113 7.832 18.7633 7.856 19.1073 7.856C19.1313 7.856 19.1433 7.88 19.1433 7.928C19.1433 7.976 19.1313 8 19.1073 8C18.7793 8 18.5233 7.996 18.3393 7.988L17.2953 7.976L16.4193 7.988C16.2593 7.996 16.0433 8 15.7713 8C15.7473 8 15.7353 7.976 15.7353 7.928C15.7353 7.88 15.7473 7.856 15.7713 7.856C16.0273 7.856 16.2113 7.836 16.3233 7.796C16.4433 7.756 16.5233 7.68 16.5633 7.568C16.6033 7.448 16.6233 7.268 16.6233 7.028V1.472C16.6233 1.232 16.6033 1.056 16.5633 0.944C16.5233 0.832 16.4433 0.755999 16.3233 0.715999C16.2033 0.668 16.0193 0.644 15.7713 0.644C15.7473 0.644 15.7353 0.62 15.7353 0.572C15.7353 0.524 15.7473 0.5 15.7713 0.5L16.4073 0.512C16.7753 0.528 17.0673 0.536 17.2833 0.536C17.4753 0.536 17.7033 0.524 17.9673 0.5C18.0713 0.492 18.2033 0.483999 18.3633 0.476C18.5233 0.468 18.7073 0.464 18.9153 0.464C19.7313 0.464 20.3753 0.636 20.8473 0.98C21.3193 1.316 21.5553 1.84 21.5553 2.552C21.5553 3.048 21.4273 3.468 21.1713 3.812C20.9153 4.156 20.5833 4.416 20.1753 4.592C19.7753 4.768 19.3633 4.856 18.9393 4.856C18.7233 4.856 18.5353 4.836 18.3753 4.796C18.3593 4.796 18.3513 4.776 18.3513 4.736C18.3513 4.712 18.3553 4.688 18.3633 4.664C18.3793 4.64 18.3953 4.632 18.4113 4.64C18.5313 4.672 18.6673 4.688 18.8193 4.688C19.1873 4.688 19.4913 4.516 19.7313 4.172C19.9793 3.828 20.1033 3.34 20.1033 2.708C20.1033 2.076 19.9673 1.588 19.6953 1.244C19.4313 0.9 19.0433 0.728 18.5313 0.728C18.3073 0.728 18.1553 0.78 18.0753 0.883999C17.9953 0.987999 17.9553 1.192 17.9553 1.496V6.98ZM22.4881 8C22.4641 8 22.4521 7.976 22.4521 7.928C22.4521 7.88 22.4641 7.856 22.4881 7.856C22.7441 7.856 22.9281 7.836 23.0401 7.796C23.1601 7.756 23.2401 7.68 23.2801 7.568C23.3201 7.448 23.3401 7.268 23.3401 7.028V1.472C23.3401 1.232 23.3201 1.056 23.2801 0.944C23.2401 0.832 23.1601 0.755999 23.0401 0.715999C22.9201 0.668 22.7361 0.644 22.4881 0.644C22.4641 0.644 22.4521 0.62 22.4521 0.572C22.4521 0.524 22.4641 0.5 22.4881 0.5H27.5761C27.6561 0.5 27.6961 0.536 27.6961 0.607999L27.7201 2.204C27.7201 2.22 27.6961 2.232 27.6481 2.24C27.6081 2.248 27.5841 2.24 27.5761 2.216C27.4481 1.752 27.2321 1.408 26.9281 1.184C26.6241 0.96 26.2241 0.848 25.7281 0.848H25.3681C25.1281 0.848 24.9521 0.9 24.8401 1.004C24.7281 1.108 24.6721 1.268 24.6721 1.484V6.98C24.6721 7.212 24.7161 7.384 24.8041 7.496C24.8921 7.608 25.0321 7.664 25.2241 7.664H25.6201C26.2441 7.664 26.7441 7.536 27.1201 7.28C27.4961 7.024 27.7721 6.628 27.9481 6.092C27.9481 6.076 27.9641 6.068 27.9961 6.068C28.0201 6.068 28.0401 6.076 28.0561 6.092C28.0801 6.1 28.0921 6.108 28.0921 6.116C28.0121 6.74 27.9721 7.308 27.9721 7.82C27.9721 7.884 27.9601 7.932 27.9361 7.964C27.9121 7.988 27.8641 8 27.7921 8H22.4881ZM27.1201 5.324C27.1201 4.996 26.9921 4.74 26.7361 4.556C26.4881 4.364 26.1281 4.268 25.6561 4.268H24.0361V3.932H25.6681C26.1321 3.932 26.4881 3.852 26.7361 3.692C26.9841 3.532 27.1081 3.308 27.1081 3.02C27.1081 2.996 27.1281 2.984 27.1681 2.984C27.2161 2.984 27.2401 2.996 27.2401 3.02L27.2281 4.1L27.2401 4.676C27.2561 4.948 27.2641 5.164 27.2641 5.324C27.2641 5.34 27.2401 5.348 27.1921 5.348C27.1441 5.348 27.1201 5.34 27.1201 5.324ZM29.8532 1.472C29.8532 1.232 29.8292 1.056 29.7812 0.944C29.7412 0.832 29.6612 0.755999 29.5412 0.715999C29.4292 0.668 29.2492 0.644 29.0012 0.644C28.9772 0.644 28.9652 0.62 28.9652 0.572C28.9652 0.524 28.9772 0.5 29.0012 0.5L29.6372 0.512C30.0052 0.528 30.2972 0.536 30.5132 0.536C30.7532 0.536 31.0572 0.528 31.4252 0.512L32.0372 0.5C32.0612 0.5 32.0732 0.524 32.0732 0.572C32.0732 0.62 32.0612 0.644 32.0372 0.644C31.7892 0.644 31.6052 0.668 31.4852 0.715999C31.3732 0.764 31.2932 0.848 31.2452 0.968C31.2052 1.08 31.1852 1.256 31.1852 1.496V7.028C31.1852 7.276 31.2052 7.456 31.2452 7.568C31.2852 7.68 31.3612 7.756 31.4732 7.796C31.5932 7.836 31.7812 7.856 32.0372 7.856C32.0692 7.856 32.0852 7.88 32.0852 7.928C32.0852 7.976 32.0692 8 32.0372 8C31.7732 8 31.5652 7.996 31.4132 7.988L30.5132 7.976L29.6252 7.988C29.4652 7.996 29.2492 8 28.9772 8C28.9612 8 28.9532 7.976 28.9532 7.928C28.9532 7.88 28.9612 7.856 28.9772 7.856C29.2332 7.856 29.4212 7.836 29.5412 7.796C29.6612 7.756 29.7412 7.68 29.7812 7.568C29.8292 7.448 29.8532 7.268 29.8532 7.028V1.472ZM31.3772 4.04L32.3372 3.116L34.1732 5.588C34.6932 6.332 35.0812 6.86 35.3372 7.172C35.6012 7.476 35.8132 7.668 35.9732 7.748C36.1332 7.82 36.3372 7.856 36.5852 7.856C36.6092 7.856 36.6212 7.88 36.6212 7.928C36.6212 7.976 36.6092 8 36.5852 8H35.2412C35.1132 8 35.0052 8.004 34.9172 8.012C34.8292 8.02 34.7572 8.024 34.7012 8.024C34.5732 8.024 34.4612 7.996 34.3652 7.94C34.2772 7.876 34.1652 7.764 34.0292 7.604C33.9012 7.444 33.6692 7.136 33.3332 6.68C33.2932 6.624 33.2452 6.564 33.1892 6.5C33.1412 6.428 33.0852 6.348 33.0212 6.26L31.3772 4.04ZM33.4412 1.736C33.6732 1.504 33.7892 1.292 33.7892 1.1C33.7892 0.955999 33.7252 0.843999 33.5972 0.763999C33.4692 0.684 33.2892 0.644 33.0572 0.644C33.0332 0.644 33.0212 0.62 33.0212 0.572C33.0212 0.524 33.0332 0.5 33.0572 0.5L33.6212 0.512C33.9732 0.528 34.3012 0.536 34.6052 0.536C34.9332 0.536 35.2732 0.528 35.6252 0.512L36.1652 0.5C36.1892 0.5 36.2012 0.524 36.2012 0.572C36.2012 0.62 36.1892 0.644 36.1652 0.644C35.7972 0.644 35.3932 0.752 34.9532 0.968C34.5132 1.176 34.1132 1.456 33.7532 1.808L30.6692 4.94L30.3452 4.904L33.4412 1.736ZM41.381 1.712C41.381 2 41.453 2.256 41.597 2.48C41.749 2.704 41.933 2.9 42.149 3.068C42.365 3.236 42.657 3.44 43.025 3.68C43.425 3.936 43.745 4.16 43.985 4.352C44.225 4.544 44.429 4.78 44.597 5.06C44.765 5.332 44.849 5.648 44.849 6.008C44.849 6.424 44.737 6.796 44.513 7.124C44.289 7.444 43.977 7.696 43.577 7.88C43.185 8.056 42.745 8.144 42.257 8.144C41.905 8.144 41.529 8.096 41.129 8C40.737 7.896 40.473 7.784 40.337 7.664C40.297 7.632 40.265 7.604 40.241 7.58C40.225 7.548 40.217 7.5 40.217 7.436L40.181 5.528V5.516C40.181 5.484 40.201 5.468 40.241 5.468C40.281 5.46 40.305 5.472 40.313 5.504C40.553 5.992 40.761 6.388 40.937 6.692C41.121 6.996 41.349 7.264 41.621 7.496C41.901 7.728 42.217 7.844 42.569 7.844C42.889 7.844 43.153 7.76 43.361 7.592C43.569 7.416 43.673 7.12 43.673 6.704C43.673 6.352 43.593 6.044 43.433 5.78C43.281 5.516 43.093 5.292 42.869 5.108C42.645 4.924 42.337 4.704 41.945 4.448C41.561 4.2 41.261 3.988 41.045 3.812C40.837 3.636 40.657 3.424 40.505 3.176C40.353 2.928 40.277 2.636 40.277 2.3C40.277 1.876 40.397 1.52 40.637 1.232C40.885 0.936 41.201 0.72 41.585 0.584C41.969 0.44 42.373 0.368 42.797 0.368C43.077 0.368 43.361 0.396 43.649 0.452C43.937 0.5 44.169 0.56 44.345 0.632C44.417 0.664 44.465 0.7 44.489 0.74C44.513 0.772 44.525 0.816 44.525 0.872V2.636C44.525 2.66 44.505 2.68 44.465 2.696C44.425 2.704 44.401 2.696 44.393 2.672L44.297 2.444C44.097 1.94 43.861 1.512 43.589 1.16C43.325 0.808 42.953 0.632 42.473 0.632C42.153 0.632 41.889 0.724 41.681 0.908C41.481 1.092 41.381 1.36 41.381 1.712ZM50.7608 2.156C50.9768 1.796 51.0848 1.488 51.0848 1.232C51.0848 1.04 51.0248 0.896 50.9048 0.8C50.7928 0.696 50.6288 0.644 50.4128 0.644C50.3888 0.644 50.3768 0.62 50.3768 0.572C50.3768 0.524 50.3888 0.5 50.4128 0.5L51.0488 0.512C51.4168 0.528 51.7448 0.536 52.0328 0.536C52.1688 0.536 52.3328 0.528 52.5247 0.512L52.9688 0.5C52.9848 0.5 52.9928 0.524 52.9928 0.572C52.9928 0.62 52.9848 0.644 52.9688 0.644C52.7208 0.644 52.4168 0.8 52.0568 1.112C51.6968 1.416 51.3768 1.8 51.0968 2.264L49.5368 4.868L49.2848 4.664L50.7608 2.156ZM46.7648 1.88C46.4688 1.416 46.2208 1.096 46.0208 0.92C45.8288 0.736 45.6648 0.644 45.5288 0.644C45.5048 0.644 45.4928 0.62 45.4928 0.572C45.4928 0.524 45.5048 0.5 45.5288 0.5L45.9008 0.512C46.0768 0.528 46.2008 0.536 46.2728 0.536C46.5528 0.536 46.9568 0.528 47.4848 0.512L48.2768 0.5C48.2928 0.5 48.3008 0.524 48.3008 0.572C48.3008 0.62 48.2928 0.644 48.2768 0.644C48.1408 0.644 48.0328 0.676 47.9528 0.74C47.8808 0.804 47.8448 0.888 47.8448 0.991999C47.8448 1.12 47.9008 1.272 48.0128 1.448L49.7408 4.172L48.5888 4.712L46.7648 1.88ZM49.8488 4.172V7.028C49.8488 7.276 49.8688 7.456 49.9088 7.568C49.9488 7.68 50.0248 7.756 50.1368 7.796C50.2568 7.836 50.4448 7.856 50.7008 7.856C50.7248 7.856 50.7368 7.88 50.7368 7.928C50.7368 7.976 50.7248 8 50.7008 8C50.4368 8 50.2288 7.996 50.0768 7.988L49.1768 7.976L48.2888 7.988C48.1288 7.996 47.9128 8 47.6408 8C47.6248 8 47.6168 7.976 47.6168 7.928C47.6168 7.88 47.6248 7.856 47.6408 7.856C47.8968 7.856 48.0848 7.836 48.2048 7.796C48.3248 7.756 48.4048 7.68 48.4448 7.568C48.4928 7.448 48.5168 7.268 48.5168 7.028V4.28L49.8488 4.172ZM54.4976 4.916H57.9536L58.0376 5.252H54.3176L54.4976 4.916ZM60.8696 7.856C60.9096 7.856 60.9296 7.88 60.9296 7.928C60.9296 7.976 60.9096 8 60.8696 8C60.7096 8 60.4616 7.992 60.1256 7.976C59.7736 7.96 59.5216 7.952 59.3696 7.952C59.1696 7.952 58.9256 7.96 58.6376 7.976C58.3656 7.992 58.1496 8 57.9896 8C57.9576 8 57.9416 7.976 57.9416 7.928C57.9416 7.88 57.9576 7.856 57.9896 7.856C58.1976 7.856 58.3456 7.836 58.4336 7.796C58.5296 7.748 58.5776 7.668 58.5776 7.556C58.5776 7.42 58.4976 7.192 58.3376 6.872L55.9016 2.06L56.4896 1.028L54.1016 6.296C53.9976 6.528 53.9456 6.744 53.9456 6.944C53.9456 7.232 54.0456 7.456 54.2456 7.616C54.4536 7.776 54.7296 7.856 55.0736 7.856C55.1136 7.856 55.1336 7.88 55.1336 7.928C55.1336 7.976 55.1136 8 55.0736 8C54.9296 8 54.7216 7.992 54.4496 7.976C54.1456 7.96 53.8816 7.952 53.6576 7.952C53.4416 7.952 53.1816 7.96 52.8776 7.976C52.6056 7.992 52.3856 8 52.2176 8C52.1856 8 52.1696 7.976 52.1696 7.928C52.1696 7.88 52.1856 7.856 52.2176 7.856C52.4416 7.856 52.6296 7.812 52.7816 7.724C52.9336 7.628 53.0856 7.464 53.2376 7.232C53.3896 6.992 53.5696 6.64 53.7776 6.176L56.3816 0.452C56.3976 0.428 56.4336 0.416 56.4896 0.416C56.5536 0.416 56.5896 0.428 56.5976 0.452L59.5976 6.356C59.8776 6.924 60.1096 7.316 60.2936 7.532C60.4776 7.748 60.6696 7.856 60.8696 7.856ZM63.0875 4.916H66.5435L66.6275 5.252H62.9075L63.0875 4.916ZM69.4595 7.856C69.4995 7.856 69.5195 7.88 69.5195 7.928C69.5195 7.976 69.4995 8 69.4595 8C69.2995 8 69.0515 7.992 68.7155 7.976C68.3635 7.96 68.1115 7.952 67.9595 7.952C67.7595 7.952 67.5155 7.96 67.2275 7.976C66.9555 7.992 66.7395 8 66.5795 8C66.5475 8 66.5315 7.976 66.5315 7.928C66.5315 7.88 66.5475 7.856 66.5795 7.856C66.7875 7.856 66.9355 7.836 67.0235 7.796C67.1195 7.748 67.1675 7.668 67.1675 7.556C67.1675 7.42 67.0875 7.192 66.9275 6.872L64.4915 2.06L65.0795 1.028L62.6915 6.296C62.5875 6.528 62.5355 6.744 62.5355 6.944C62.5355 7.232 62.6355 7.456 62.8355 7.616C63.0435 7.776 63.3195 7.856 63.6635 7.856C63.7035 7.856 63.7235 7.88 63.7235 7.928C63.7235 7.976 63.7035 8 63.6635 8C63.5195 8 63.3115 7.992 63.0395 7.976C62.7355 7.96 62.4715 7.952 62.2475 7.952C62.0315 7.952 61.7715 7.96 61.4675 7.976C61.1955 7.992 60.9755 8 60.8075 8C60.7755 8 60.7595 7.976 60.7595 7.928C60.7595 7.88 60.7755 7.856 60.8075 7.856C61.0315 7.856 61.2195 7.812 61.3715 7.724C61.5235 7.628 61.6755 7.464 61.8275 7.232C61.9795 6.992 62.1595 6.64 62.3675 6.176L64.9715 0.452C64.9875 0.428 65.0235 0.416 65.0795 0.416C65.1435 0.416 65.1795 0.428 65.1875 0.452L68.1875 6.356C68.4675 6.924 68.6995 7.316 68.8835 7.532C69.0675 7.748 69.2595 7.856 69.4595 7.856ZM75.9613 1.496C75.9613 1.256 75.9373 1.08 75.8893 0.968C75.8413 0.848 75.7493 0.764 75.6133 0.715999C75.4773 0.668 75.2613 0.644 74.9653 0.644C74.9413 0.644 74.9293 0.62 74.9293 0.572C74.9293 0.524 74.9413 0.5 74.9653 0.5L75.5533 0.512C75.9533 0.528 76.3133 0.536 76.6333 0.536C76.8493 0.536 77.1573 0.528 77.5573 0.512L78.2293 0.5C78.2533 0.5 78.2653 0.524 78.2653 0.572C78.2653 0.62 78.2533 0.644 78.2293 0.644C77.9573 0.644 77.7533 0.668 77.6173 0.715999C77.4893 0.755999 77.4013 0.832 77.3533 0.944C77.3133 1.056 77.2933 1.232 77.2933 1.472V7.028C77.2933 7.268 77.3133 7.448 77.3533 7.568C77.4013 7.68 77.4893 7.756 77.6173 7.796C77.7453 7.836 77.9493 7.856 78.2293 7.856C78.2533 7.856 78.2653 7.88 78.2653 7.928C78.2653 7.976 78.2533 8 78.2293 8C77.9493 8 77.7253 7.996 77.5573 7.988L76.6333 7.976L75.5533 7.988C75.4093 7.996 75.2133 8 74.9653 8C74.9413 8 74.9293 7.976 74.9293 7.928C74.9293 7.88 74.9413 7.856 74.9653 7.856C75.2613 7.856 75.4773 7.836 75.6133 7.796C75.7493 7.756 75.8413 7.68 75.8893 7.568C75.9373 7.456 75.9613 7.276 75.9613 7.028V1.496ZM71.3773 3.932H76.5733V4.268H71.3773V3.932ZM70.7533 1.472C70.7533 1.232 70.7293 1.056 70.6813 0.944C70.6333 0.832 70.5453 0.755999 70.4173 0.715999C70.2973 0.668 70.1013 0.644 69.8293 0.644C69.8053 0.644 69.7933 0.62 69.7933 0.572C69.7933 0.524 69.8053 0.5 69.8293 0.5L70.4773 0.512C70.8453 0.528 71.1413 0.536 71.3653 0.536C71.6693 0.536 72.0213 0.528 72.4213 0.512L73.0813 0.5C73.0973 0.5 73.1053 0.524 73.1053 0.572C73.1053 0.62 73.0973 0.644 73.0813 0.644C72.7933 0.644 72.5813 0.668 72.4453 0.715999C72.3093 0.764 72.2133 0.848 72.1573 0.968C72.1093 1.08 72.0853 1.256 72.0853 1.496V7.028C72.0853 7.268 72.1093 7.448 72.1573 7.568C72.2053 7.68 72.2973 7.756 72.4333 7.796C72.5693 7.836 72.7853 7.856 73.0813 7.856C73.0973 7.856 73.1053 7.88 73.1053 7.928C73.1053 7.976 73.0973 8 73.0813 8C72.8013 8 72.5773 7.996 72.4093 7.988L71.3653 7.976L70.4653 7.988C70.3053 7.996 70.0853 8 69.8053 8C69.7893 8 69.7813 7.976 69.7813 7.928C69.7813 7.88 69.7893 7.856 69.8053 7.856C70.0853 7.856 70.2893 7.836 70.4173 7.796C70.5453 7.756 70.6333 7.68 70.6813 7.568C70.7293 7.448 70.7533 7.268 70.7533 7.028V1.472ZM79.1014 8C79.0774 8 79.0654 7.976 79.0654 7.928C79.0654 7.88 79.0774 7.856 79.1014 7.856C79.3574 7.856 79.5414 7.836 79.6534 7.796C79.7734 7.756 79.8534 7.68 79.8934 7.568C79.9334 7.448 79.9534 7.268 79.9534 7.028V1.472C79.9534 1.232 79.9334 1.056 79.8934 0.944C79.8534 0.832 79.7734 0.755999 79.6534 0.715999C79.5334 0.668 79.3494 0.644 79.1014 0.644C79.0774 0.644 79.0654 0.62 79.0654 0.572C79.0654 0.524 79.0774 0.5 79.1014 0.5H84.1894C84.2694 0.5 84.3094 0.536 84.3094 0.607999L84.3334 2.204C84.3334 2.22 84.3094 2.232 84.2614 2.24C84.2214 2.248 84.1974 2.24 84.1894 2.216C84.0614 1.752 83.8454 1.408 83.5414 1.184C83.2374 0.96 82.8374 0.848 82.3414 0.848H81.9814C81.7414 0.848 81.5654 0.9 81.4534 1.004C81.3414 1.108 81.2854 1.268 81.2854 1.484V6.98C81.2854 7.212 81.3294 7.384 81.4174 7.496C81.5054 7.608 81.6454 7.664 81.8374 7.664H82.2334C82.8574 7.664 83.3574 7.536 83.7334 7.28C84.1094 7.024 84.3854 6.628 84.5614 6.092C84.5614 6.076 84.5774 6.068 84.6094 6.068C84.6334 6.068 84.6534 6.076 84.6694 6.092C84.6934 6.1 84.7054 6.108 84.7054 6.116C84.6254 6.74 84.5854 7.308 84.5854 7.82C84.5854 7.884 84.5734 7.932 84.5494 7.964C84.5254 7.988 84.4774 8 84.4054 8H79.1014ZM83.7334 5.324C83.7334 4.996 83.6054 4.74 83.3494 4.556C83.1014 4.364 82.7414 4.268 82.2694 4.268H80.6494V3.932H82.2814C82.7454 3.932 83.1014 3.852 83.3494 3.692C83.5974 3.532 83.7214 3.308 83.7214 3.02C83.7214 2.996 83.7414 2.984 83.7814 2.984C83.8294 2.984 83.8534 2.996 83.8534 3.02L83.8414 4.1L83.8534 4.676C83.8694 4.948 83.8774 5.164 83.8774 5.324C83.8774 5.34 83.8534 5.348 83.8054 5.348C83.7574 5.348 83.7334 5.34 83.7334 5.324ZM85.7225 8C85.6985 8 85.6865 7.976 85.6865 7.928C85.6865 7.88 85.6985 7.856 85.7225 7.856C85.9785 7.856 86.1625 7.836 86.2745 7.796C86.3945 7.756 86.4745 7.68 86.5145 7.568C86.5545 7.448 86.5745 7.268 86.5745 7.028V1.472C86.5745 1.232 86.5545 1.056 86.5145 0.944C86.4745 0.832 86.3945 0.755999 86.2745 0.715999C86.1545 0.668 85.9705 0.644 85.7225 0.644C85.6985 0.644 85.6865 0.62 85.6865 0.572C85.6865 0.524 85.6985 0.5 85.7225 0.5H90.8105C90.8905 0.5 90.9305 0.536 90.9305 0.607999L90.9545 2.204C90.9545 2.22 90.9305 2.232 90.8825 2.24C90.8425 2.248 90.8185 2.24 90.8105 2.216C90.6825 1.752 90.4665 1.408 90.1625 1.184C89.8585 0.96 89.4585 0.848 88.9625 0.848H88.6025C88.3625 0.848 88.1865 0.9 88.0745 1.004C87.9625 1.108 87.9065 1.268 87.9065 1.484V6.98C87.9065 7.212 87.9505 7.384 88.0385 7.496C88.1265 7.608 88.2665 7.664 88.4585 7.664H88.8545C89.4785 7.664 89.9785 7.536 90.3545 7.28C90.7305 7.024 91.0065 6.628 91.1825 6.092C91.1825 6.076 91.1985 6.068 91.2305 6.068C91.2545 6.068 91.2745 6.076 91.2905 6.092C91.3145 6.1 91.3265 6.108 91.3265 6.116C91.2465 6.74 91.2065 7.308 91.2065 7.82C91.2065 7.884 91.1945 7.932 91.1705 7.964C91.1465 7.988 91.0985 8 91.0265 8H85.7225ZM90.3545 5.324C90.3545 4.996 90.2265 4.74 89.9705 4.556C89.7225 4.364 89.3625 4.268 88.8905 4.268H87.2705V3.932H88.9025C89.3665 3.932 89.7225 3.852 89.9705 3.692C90.2185 3.532 90.3425 3.308 90.3425 3.02C90.3425 2.996 90.3625 2.984 90.4025 2.984C90.4505 2.984 90.4745 2.996 90.4745 3.02L90.4625 4.1L90.4745 4.676C90.4905 4.948 90.4985 5.164 90.4985 5.324C90.4985 5.34 90.4745 5.348 90.4265 5.348C90.3785 5.348 90.3545 5.34 90.3545 5.324ZM93.3756 0.775999L93.7356 0.8V6.476C93.7356 6.9 93.8236 7.236 93.9996 7.484C94.1756 7.732 94.4196 7.856 94.7316 7.856C94.7476 7.856 94.7556 7.88 94.7556 7.928C94.7556 7.976 94.7476 8 94.7316 8C94.5076 8 94.3356 7.996 94.2156 7.988L93.5676 7.976L92.8236 7.988C92.6876 7.996 92.4916 8 92.2356 8C92.2116 8 92.1996 7.976 92.1996 7.928C92.1996 7.88 92.2116 7.856 92.2356 7.856C92.5876 7.856 92.8636 7.732 93.0636 7.484C93.2716 7.236 93.3756 6.9 93.3756 6.476V0.775999ZM99.4956 8.18C99.4956 8.204 99.4756 8.22 99.4356 8.228C99.4036 8.236 99.3796 8.232 99.3636 8.216L93.4476 1.484C93.1676 1.164 92.9276 0.944 92.7276 0.823999C92.5276 0.704 92.3236 0.644 92.1156 0.644C92.0996 0.644 92.0916 0.62 92.0916 0.572C92.0916 0.524 92.0996 0.5 92.1156 0.5L92.6196 0.512C92.7236 0.52 92.8756 0.524 93.0756 0.524L93.9876 0.512C94.0996 0.504 94.2356 0.5 94.3956 0.5C94.4596 0.5 94.5076 0.516 94.5396 0.547999C94.5716 0.579999 94.6276 0.648 94.7076 0.752C94.8436 0.936 94.9396 1.06 94.9956 1.124L99.3996 6.2L99.4956 8.18ZM99.4956 8.18L99.1476 7.82V2.036C99.1476 1.604 99.0596 1.264 98.8836 1.016C98.7076 0.768 98.4636 0.644 98.1516 0.644C98.1356 0.644 98.1276 0.62 98.1276 0.572C98.1276 0.524 98.1356 0.5 98.1516 0.5L98.6676 0.512C98.9236 0.528 99.1396 0.536 99.3156 0.536C99.4756 0.536 99.6996 0.528 99.9876 0.512L100.528 0.5C100.544 0.5 100.552 0.524 100.552 0.572C100.552 0.62 100.544 0.644 100.528 0.644C100.208 0.644 99.9556 0.772 99.7716 1.028C99.5876 1.276 99.4956 1.612 99.4956 2.036V8.18ZM103.956 8C103.916 8 103.872 7.952 103.824 7.856C103.776 7.76 103.768 7.696 103.8 7.664C104.6 6.664 105.18 5.912 105.54 5.408C105.908 4.896 106.184 4.424 106.368 3.992C106.56 3.552 106.656 3.1 106.656 2.636C106.656 1.636 106.244 1.136 105.42 1.136C105.044 1.136 104.732 1.232 104.484 1.424C104.244 1.608 104.088 1.864 104.016 2.192C104.016 2.2 104 2.204 103.968 2.204C103.904 2.204 103.876 2.188 103.884 2.156C103.972 1.612 104.212 1.18 104.604 0.86C104.996 0.532 105.488 0.368 106.08 0.368C106.68 0.368 107.144 0.539999 107.472 0.883999C107.8 1.22 107.964 1.668 107.964 2.228C107.964 2.652 107.872 3.064 107.688 3.464C107.504 3.856 107.28 4.212 107.016 4.532C106.752 4.852 106.412 5.228 105.996 5.66C105.516 6.156 105.188 6.524 105.012 6.764C104.98 6.82 105 6.848 105.072 6.848C105.928 6.848 106.552 6.828 106.944 6.788C107.344 6.748 107.616 6.672 107.76 6.56C107.912 6.44 107.988 6.252 107.988 5.996C107.988 5.972 108.012 5.96 108.06 5.96C108.108 5.96 108.132 5.972 108.132 5.996V7.868C108.132 7.9 108.12 7.932 108.096 7.964C108.08 7.988 108.056 8 108.024 8H103.956ZM111.821 8.156C111.021 8.156 110.393 7.812 109.937 7.124C109.481 6.428 109.253 5.468 109.253 4.244C109.253 3.02 109.481 2.068 109.937 1.388C110.393 0.7 111.029 0.356 111.845 0.356C112.637 0.356 113.253 0.704 113.693 1.4C114.141 2.088 114.365 3.048 114.365 4.28C114.365 5.496 114.141 6.448 113.693 7.136C113.245 7.816 112.621 8.156 111.821 8.156ZM111.965 7.904C112.317 7.904 112.569 7.636 112.721 7.1C112.873 6.564 112.949 5.672 112.949 4.424C112.949 3.504 112.905 2.768 112.817 2.216C112.737 1.664 112.605 1.26 112.421 1.004C112.245 0.74 112.009 0.607999 111.713 0.607999C111.337 0.607999 111.065 0.883999 110.897 1.436C110.737 1.98 110.657 2.888 110.657 4.16C110.657 5.496 110.757 6.456 110.957 7.04C111.165 7.616 111.501 7.904 111.965 7.904ZM115.288 8C115.248 8 115.204 7.952 115.156 7.856C115.108 7.76 115.1 7.696 115.132 7.664C115.932 6.664 116.512 5.912 116.872 5.408C117.24 4.896 117.516 4.424 117.7 3.992C117.892 3.552 117.988 3.1 117.988 2.636C117.988 1.636 117.576 1.136 116.752 1.136C116.376 1.136 116.064 1.232 115.816 1.424C115.576 1.608 115.42 1.864 115.348 2.192C115.348 2.2 115.332 2.204 115.3 2.204C115.236 2.204 115.208 2.188 115.216 2.156C115.304 1.612 115.544 1.18 115.936 0.86C116.328 0.532 116.82 0.368 117.412 0.368C118.012 0.368 118.476 0.539999 118.804 0.883999C119.132 1.22 119.296 1.668 119.296 2.228C119.296 2.652 119.204 3.064 119.02 3.464C118.836 3.856 118.612 4.212 118.348 4.532C118.084 4.852 117.744 5.228 117.328 5.66C116.848 6.156 116.52 6.524 116.344 6.764C116.312 6.82 116.332 6.848 116.404 6.848C117.26 6.848 117.884 6.828 118.276 6.788C118.676 6.748 118.948 6.672 119.092 6.56C119.244 6.44 119.32 6.252 119.32 5.996C119.32 5.972 119.344 5.96 119.392 5.96C119.44 5.96 119.464 5.972 119.464 5.996V7.868C119.464 7.9 119.452 7.932 119.428 7.964C119.412 7.988 119.388 8 119.356 8H115.288ZM121.101 4.004C121.061 4.004 121.029 3.992 121.005 3.968C120.981 3.936 120.973 3.9 120.981 3.86L121.365 0.644C121.373 0.588 121.385 0.552 121.401 0.536C121.417 0.512 121.457 0.5 121.521 0.5C122.609 0.5 123.333 0.496 123.693 0.487999C124.053 0.472 124.289 0.444 124.401 0.404C124.513 0.364 124.601 0.28 124.665 0.151999C124.673 0.136 124.697 0.132 124.737 0.14C124.777 0.14 124.793 0.156 124.785 0.188L124.581 1.52C124.565 1.616 124.537 1.68 124.497 1.712C124.465 1.744 124.401 1.76 124.305 1.76L121.773 1.7C121.669 1.7 121.605 1.756 121.581 1.868L121.329 3.848L121.101 4.004ZM120.837 7.148C120.989 7.316 121.181 7.444 121.413 7.532C121.645 7.612 121.885 7.652 122.133 7.652C122.653 7.652 123.041 7.492 123.297 7.172C123.553 6.844 123.681 6.412 123.681 5.876C123.681 5.268 123.541 4.78 123.261 4.412C122.981 4.036 122.577 3.848 122.049 3.848C121.817 3.848 121.609 3.872 121.425 3.92C121.249 3.968 121.141 3.996 121.101 4.004C121.093 4.004 121.089 3.992 121.089 3.968C121.089 3.928 121.093 3.884 121.101 3.836C121.117 3.788 121.129 3.752 121.137 3.728C121.313 3.664 121.533 3.6 121.797 3.536C122.061 3.472 122.341 3.44 122.637 3.44C123.381 3.44 123.965 3.64 124.389 4.04C124.813 4.44 125.025 5.008 125.025 5.744C125.025 6.504 124.793 7.096 124.329 7.52C123.873 7.936 123.285 8.144 122.565 8.144C122.189 8.144 121.853 8.072 121.557 7.928C121.261 7.776 120.985 7.548 120.729 7.244L120.717 7.22C120.717 7.188 120.733 7.164 120.765 7.148C120.797 7.124 120.821 7.124 120.837 7.148Z" fill="#989898"/>
</svg>
