<svg width="35" height="10" viewBox="0 0 35 10" fill="none" xmlns="http://www.w3.org/2000/svg">
<path d="M6.9 4.056V5.772C6.9 6.812 6.64 7.632 6.12 8.232C5.6 8.824 4.84 9.12 3.84 9.12C2.832 9.12 2.068 8.824 1.548 8.232C1.036 7.632 0.78 6.812 0.78 5.772V4.056C0.78 3.016 1.036 2.2 1.548 1.608C2.068 1.016 2.832 0.719999 3.84 0.719999C4.84 0.719999 5.6 1.016 6.12 1.608C6.64 2.2 6.9 3.016 6.9 4.056ZM5.424 4.056C5.424 3.4 5.296 2.908 5.04 2.58C4.784 2.244 4.384 2.076 3.84 2.076C3.296 2.076 2.896 2.244 2.64 2.58C2.384 2.908 2.256 3.4 2.256 4.056V5.772C2.256 6.428 2.384 6.924 2.64 7.26C2.896 7.596 3.296 7.764 3.84 7.764C4.384 7.764 4.784 7.596 5.04 7.26C5.296 6.924 5.424 6.428 5.424 5.772V4.056ZM10.5798 7.788C11.5078 7.788 11.9718 7.444 11.9718 6.756C11.9718 6.476 11.8998 6.256 11.7558 6.096C11.6198 5.936 11.3638 5.796 10.9878 5.676L10.0038 5.352C8.82778 4.968 8.23978 4.196 8.23978 3.036C8.23978 2.364 8.44778 1.812 8.86378 1.38C9.28778 0.939999 9.94778 0.719999 10.8438 0.719999C11.2198 0.719999 11.5918 0.763999 11.9598 0.852C12.3278 0.932 12.7198 1.064 13.1358 1.248L12.6918 2.484C12.3078 2.332 11.9798 2.224 11.7078 2.16C11.4438 2.088 11.1718 2.052 10.8918 2.052C10.5238 2.052 10.2318 2.12 10.0158 2.256C9.80778 2.384 9.70378 2.62 9.70378 2.964C9.70378 3.22 9.77578 3.432 9.91978 3.6C10.0718 3.76 10.3198 3.896 10.6638 4.008L11.6478 4.332C12.2398 4.532 12.6838 4.824 12.9798 5.208C13.2838 5.584 13.4358 6.084 13.4358 6.708C13.4358 7.428 13.2078 8.012 12.7518 8.46C12.2958 8.9 11.5798 9.12 10.6038 9.12C10.2198 9.12 9.81978 9.076 9.40378 8.988C8.99578 8.892 8.54778 8.732 8.05978 8.508L8.50378 7.272C8.95178 7.464 9.33178 7.6 9.64378 7.68C9.96378 7.752 10.2758 7.788 10.5798 7.788ZM15.0147 9V0.84H17.7027C18.5587 0.84 19.1987 1.056 19.6227 1.488C20.0547 1.92 20.2707 2.496 20.2707 3.216V3.852C20.2707 4.572 20.0547 5.152 19.6227 5.592C19.1987 6.024 18.5587 6.24 17.7027 6.24H16.4547V9H15.0147ZM17.7027 2.22H16.4547V4.86H17.7027C18.0547 4.86 18.3227 4.772 18.5067 4.596C18.6987 4.42 18.7947 4.172 18.7947 3.852V3.216C18.7947 2.904 18.6987 2.66 18.5067 2.484C18.3227 2.308 18.0547 2.22 17.7027 2.22ZM26.6333 7.62V9H21.9053V0.84H26.5133V2.22H23.3453V4.176H26.1533V5.556H23.3453V7.62H26.6333ZM32.6709 9L30.6309 5.436C30.4949 5.588 30.3549 5.74 30.2109 5.892C30.0749 6.044 29.9309 6.2 29.7789 6.36V9H28.3389V0.84H29.7789V4.716C30.3869 4.02 30.9069 3.36 31.3389 2.736C31.7709 2.104 32.1429 1.472 32.4549 0.84H34.0269C33.6829 1.528 33.3149 2.18 32.9229 2.796C32.5389 3.404 32.1309 3.968 31.6989 4.488L34.4109 9H32.6709Z" fill="white"/>
</svg>
